<?xml version="1.0" standalone="no"?>
<!DOCTYPE svg PUBLIC "-//W3C//DTD SVG 20010904//EN"
 "http://www.w3.org/TR/2001/REC-SVG-20010904/DTD/svg10.dtd">
<svg version="1.0" xmlns="http://www.w3.org/2000/svg"
 width="219.000000pt" height="230.000000pt" viewBox="0 0 219.000000 230.000000"
 preserveAspectRatio="xMidYMid meet">

<g transform="translate(0.000000,230.000000) scale(0.100000,-0.100000)"
fill="#000000" stroke="none">
<path d="M220 2177 c-19 -6 -58 -34 -86 -62 -90 -90 -86 -33 -82 -982 3 -917
-1 -858 69 -938 19 -21 56 -49 84 -61 l50 -24 835 0 c530 0 848 4 871 10 50
14 122 80 148 135 18 38 21 63 21 169 0 119 -1 126 -26 155 -41 49 -116 59
-172 23 -34 -22 -46 -50 -52 -129 -4 -40 -12 -79 -20 -87 -11 -14 -96 -16
-764 -16 -456 0 -757 4 -766 10 -13 8 -15 105 -18 758 -3 728 -2 750 17 773
l19 24 563 4 c310 2 650 0 756 -4 l193 -7 10 -37 c5 -20 10 -55 10 -79 0 -71
36 -119 101 -135 39 -10 95 10 123 44 25 29 26 36 26 152 0 101 -4 130 -21
167 -26 58 -63 96 -121 126 l-47 24 -843 -1 c-584 -1 -854 -4 -878 -12z"/>
<path d="M1555 1655 c-54 -27 -60 -46 -65 -215 l-5 -155 -418 -5 -419 -5 -34
-37 c-29 -33 -34 -45 -34 -88 0 -43 5 -55 34 -88 l34 -37 419 -5 418 -5 2
-145 c3 -160 13 -194 63 -223 15 -9 47 -17 69 -17 39 0 48 7 156 108 62 59
168 164 234 234 l121 128 0 50 c0 49 -2 53 -79 138 -78 85 -220 227 -333 330
-48 44 -63 52 -95 52 -21 0 -52 -7 -68 -15z"/>
</g>
</svg>
