<?xml version="1.0" standalone="no"?>
<!DOCTYPE svg PUBLIC "-//W3C//DTD SVG 20010904//EN"
 "http://www.w3.org/TR/2001/REC-SVG-20010904/DTD/svg10.dtd">
<svg version="1.0" xmlns="http://www.w3.org/2000/svg"
 width="221.000000pt" height="228.000000pt" viewBox="0 0 221.000000 228.000000"
 preserveAspectRatio="xMidYMid meet">

<g transform="translate(0.000000,228.000000) scale(0.100000,-0.100000)"
fill="#000000" stroke="none">
<path d="M998 1571 c-77 -25 -117 -52 -181 -121 -78 -84 -101 -147 -102 -275
0 -92 3 -105 32 -168 79 -167 261 -266 437 -237 119 19 238 97 294 193 l22 39
-32 -20 c-163 -100 -396 -42 -492 123 -85 144 -66 311 50 435 26 27 43 50 38
49 -5 0 -34 -8 -66 -18z"/>
</g>
</svg>
